<?xml version="1.0" encoding="utf-8"?>
<!-- Generator: Adobe Illustrator 22.1.0, SVG Export Plug-In . SVG Version: 6.00 Build 0)  -->
<svg version="1.1" id="Layer_1" xmlns="http://www.w3.org/2000/svg" xmlns:xlink="http://www.w3.org/1999/xlink" x="0px" y="0px"
	 viewBox="0 0 1971.4 286.5" style="enable-background:new 0 0 1971.4 286.5;" xml:space="preserve">
<style type="text/css">
	.st0{fill:#FF2B06;}
	.st1{font-family:'Helvetica';}
	.st2{font-size:146.9047px;}
</style>
<path class="st0" d="M43.4,189L35.9,178h7.2l4.1,6l4-6h7l-7.6,10.8l8.5,12.2h-7.2l-4.8-7.3l-4.8,7.3h-7.1L43.4,189z"/>
<path d="M89,187.4H66.5v-4.8H89V187.4z M89,197H66.5v-4.8H89V197z"/>
<path d="M106.2,174.5h-6.3v-5.2h6.3V174.5z M99.9,178h6.3v23h-6.3V178z"/>
<path d="M110.3,178h6v3.2h0.1c1.6-2.6,4.4-3.8,7-3.8c6.7,0,8.4,3.8,8.4,9.5v14.2h-6.3v-13c0-3.8-1.1-5.7-4.1-5.7
	c-3.4,0-4.9,1.9-4.9,6.6v12.1h-6.3V178z"/>
<path d="M152.3,198.1L152.3,198.1c-1.6,2.5-4.1,3.6-7.1,3.6c-6.9,0-10.3-6-10.3-12.3c0-6.2,3.4-11.9,10.2-11.9
	c2.7,0,5.4,1.2,6.9,3.4h0h0.1v-11.6h6.3v31.8h-6V198.1z M146.7,182.2c-4.1,0-5.6,3.6-5.6,7.3c0,3.6,1.6,7.4,5.6,7.4
	c4.2,0,5.4-3.6,5.4-7.4C152.2,185.7,150.8,182.2,146.7,182.2z"/>
<path d="M167.3,191.1c0.2,4,2.1,5.8,5.7,5.8c2.5,0,4.6-1.6,5-3h5.6c-1.8,5.4-5.6,7.7-10.8,7.7c-7.3,0-11.8-5-11.8-12.1
	c0-6.9,4.8-12.2,11.8-12.2c7.8,0,11.6,6.6,11.2,13.7H167.3z M177.6,187.1c-0.6-3.2-2-4.9-5-4.9c-4,0-5.2,3.1-5.3,4.9H177.6z"/>
<path d="M186.8,178h6v2.9h0.1c1.5-2.4,4-3.6,6.9-3.6c7.2,0,10.5,5.8,10.5,12.4c0,6.1-3.4,11.9-10.1,11.9c-2.8,0-5.4-1.2-6.9-3.5
	h-0.1v10.9h-6.3V178z M203.9,189.6c0-3.6-1.5-7.4-5.5-7.4c-4.1,0-5.5,3.7-5.5,7.4c0,3.7,1.4,7.3,5.5,7.3
	C202.5,196.9,203.9,193.4,203.9,189.6z"/>
<path d="M218.3,191.1c0.2,4,2.1,5.8,5.7,5.8c2.5,0,4.6-1.6,5-3h5.6c-1.8,5.4-5.6,7.7-10.8,7.7c-7.3,0-11.8-5-11.8-12.1
	c0-6.9,4.8-12.2,11.8-12.2c7.8,0,11.6,6.6,11.2,13.7H218.3z M228.6,187.1c-0.6-3.2-2-4.9-5-4.9c-4,0-5.2,3.1-5.3,4.9H228.6z"/>
<path d="M237.8,178h6v3.2h0.1c1.6-2.6,4.4-3.8,7-3.8c6.7,0,8.4,3.8,8.4,9.5v14.2H253v-13c0-3.8-1.1-5.7-4-5.7
	c-3.4,0-4.9,1.9-4.9,6.6v12.1h-6.3V178z"/>
<path d="M279.7,198.1L279.7,198.1c-1.6,2.5-4.1,3.6-7.1,3.6c-6.9,0-10.3-6-10.3-12.3c0-6.2,3.4-11.9,10.2-11.9
	c2.7,0,5.4,1.2,6.9,3.4h0h0.1v-11.6h6.3v31.8h-6V198.1z M274.2,182.2c-4.1,0-5.6,3.6-5.6,7.3c0,3.6,1.6,7.4,5.6,7.4
	c4.2,0,5.4-3.6,5.4-7.4C279.6,185.7,278.3,182.2,274.2,182.2z"/>
<path d="M294.8,191.1c0.2,4,2.1,5.8,5.7,5.8c2.5,0,4.6-1.6,5-3h5.6c-1.8,5.4-5.6,7.7-10.8,7.7c-7.3,0-11.8-5-11.8-12.1
	c0-6.9,4.8-12.2,11.8-12.2c7.8,0,11.6,6.6,11.2,13.7H294.8z M305,187.1c-0.6-3.2-2-4.9-5-4.9c-4,0-5.2,3.1-5.3,4.9H305z"/>
<path d="M314.2,178h6v3.2h0.1c1.6-2.6,4.4-3.8,7-3.8c6.7,0,8.4,3.8,8.4,9.5v14.2h-6.3v-13c0-3.8-1.1-5.7-4.1-5.7
	c-3.4,0-4.9,1.9-4.9,6.6v12.1h-6.3V178z"/>
<path d="M347.7,178h4.6v4.2h-4.6v11.4c0,2.1,0.5,2.7,2.7,2.7c0.7,0,1.3,0,2-0.2v4.9c-1.1,0.2-2.4,0.2-3.7,0.2
	c-3.9,0-7.3-0.9-7.3-5.5v-13.6h-3.8V178h3.8v-6.9h6.3V178z"/>
<path d="M354.7,169.3h6.3v31.8h-6.3V169.3z"/>
<path d="M376.4,204c-1.4,3.7-3.6,5.2-7.9,5.2c-1.3,0-2.6-0.1-3.9-0.2v-5.2c1.2,0.1,2.4,0.3,3.7,0.2c2.2-0.2,2.9-2.5,2.2-4.3
	l-8.1-21.6h6.8l5.2,15.8h0.1l5-15.8h6.5L376.4,204z"/>
<g>
	<path d="M46.4,225c7.3,0,11.9,4.8,11.9,12.2c0,7.3-4.7,12.1-11.9,12.1c-7.2,0-11.9-4.8-11.9-12.1C34.5,229.8,39.2,225,46.4,225z
		 M46.4,244.5c4.3,0,5.6-3.7,5.6-7.3c0-3.7-1.3-7.4-5.6-7.4c-4.3,0-5.6,3.7-5.6,7.4C40.8,240.8,42.1,244.5,46.4,244.5z"/>
	<path d="M60.6,225.6h6v4.3h0.1C67.9,227,71,225,74,225c0.4,0,1,0.1,1.4,0.2v5.9c-0.6-0.1-1.5-0.2-2.3-0.2c-4.6,0-6.2,3.3-6.2,7.4
		v10.4h-6.3V225.6z"/>
	<path d="M99.1,247.2c0,3.8-1.3,10.2-11.9,10.2c-4.5,0-9.8-2.1-10.1-7.4h6.3c0.6,2.4,2.5,3.2,4.7,3.2c3.5,0,5.1-2.4,5.1-5.7v-3h-0.1
		c-1.4,2.4-4.1,3.6-6.9,3.6c-6.9,0-9.8-5.3-9.8-11.6c0-6,3.4-11.4,9.9-11.4c3,0,5.3,1,6.9,3.7h0.1v-3.1h6V247.2z M93.1,236.8
		c0-3.7-1.3-7.1-5.4-7.1c-3.6,0-5.1,3.1-5.1,6.5c0,3.3,1.2,6.9,5.1,6.9C91.4,243.2,93.1,240.1,93.1,236.8z"/>
	<path d="M102.2,232.7c0.4-5.9,5.7-7.7,10.8-7.7c4.6,0,10.1,1,10.1,6.5v12c0,2.1,0.2,4.2,0.8,5.1h-6.4c-0.2-0.7-0.4-1.5-0.4-2.2
		c-2,2.1-4.9,2.8-7.7,2.8c-4.4,0-7.8-2.2-7.8-6.9c0-5.2,3.9-6.5,7.8-7c3.9-0.6,7.5-0.4,7.5-3c0-2.7-1.9-3.1-4.1-3.1
		c-2.4,0-4,1-4.2,3.5H102.2z M116.8,237.4c-1.1,0.9-3.3,1-5.3,1.3c-2,0.4-3.7,1.1-3.7,3.4c0,2.4,1.8,2.9,3.9,2.9
		c4.9,0,5.1-3.9,5.1-5.3V237.4z"/>
	<path d="M127.1,225.6h6v3.2h0.1c1.6-2.6,4.4-3.8,7-3.8c6.7,0,8.4,3.8,8.4,9.5v14.2h-6.3v-13c0-3.8-1.1-5.7-4.1-5.7
		c-3.4,0-4.9,1.9-4.9,6.6v12.1h-6.3V225.6z"/>
	<path d="M158.2,222.1h-6.3v-5.2h6.3V222.1z M151.9,225.6h6.3v23h-6.3V225.6z"/>
	<path d="M160.9,243.9l12-13.5h-11.1v-4.8h19.4v4.8l-12,13.5H182v4.8h-21.1V243.9z"/>
	<path d="M189.7,238.7c0.2,4,2.1,5.8,5.7,5.8c2.5,0,4.6-1.6,5-3h5.6c-1.8,5.4-5.6,7.7-10.8,7.7c-7.3,0-11.8-5-11.8-12.1
		c0-6.9,4.8-12.2,11.8-12.2c7.8,0,11.6,6.6,11.2,13.7H189.7z M200,234.7c-0.6-3.2-2-4.9-5-4.9c-4,0-5.2,3.1-5.3,4.9H200z"/>
	<path d="M225.6,245.7L225.6,245.7c-1.6,2.5-4.1,3.6-7.1,3.6c-6.9,0-10.3-6-10.3-12.3c0-6.2,3.4-11.9,10.2-11.9
		c2.7,0,5.4,1.2,6.9,3.4h0h0.1v-11.6h6.3v31.8h-6V245.7z M220.1,229.8c-4.1,0-5.6,3.6-5.6,7.3c0,3.6,1.6,7.4,5.6,7.4
		c4.2,0,5.4-3.6,5.4-7.4C225.5,233.3,224.2,229.8,220.1,229.8z"/>
	<path d="M254.7,222.7h-9.5v-5.9h26v5.9h-9.5v25.9h-7V222.7z"/>
	<path d="M273.9,216.9h23.8v5.9h-16.8v6.8h15.4v5.4h-15.4v7.8H298v5.9h-24.1V216.9z"/>
	<path d="M301,216.9h13.7c8.2,0,14.4,5.2,14.4,15.7c0,9.2-4.7,16.1-14.4,16.1H301V216.9z M308,242.8h6.2c4,0,7.9-2.5,7.9-9.5
		c0-6.4-2.2-10.5-9.2-10.5h-5V242.8z"/>
	<path d="M349.1,238.7c0.2,4,2.1,5.8,5.7,5.8c2.5,0,4.6-1.6,5-3h5.6c-1.8,5.4-5.6,7.7-10.8,7.7c-7.3,0-11.8-5-11.8-12.1
		c0-6.9,4.8-12.2,11.8-12.2c7.8,0,11.6,6.6,11.2,13.7H349.1z M359.4,234.7c-0.6-3.2-2-4.9-5-4.9c-4,0-5.2,3.1-5.3,4.9H359.4z"/>
	<path d="M380.4,248.6h-7l-7.9-23h6.6l4.9,15.7h0.1l4.9-15.7h6.3L380.4,248.6z"/>
	<path d="M394.2,238.7c0.2,4,2.1,5.8,5.7,5.8c2.5,0,4.6-1.6,5-3h5.6c-1.8,5.4-5.6,7.7-10.8,7.7c-7.3,0-11.8-5-11.8-12.1
		c0-6.9,4.8-12.2,11.8-12.2c7.8,0,11.6,6.6,11.2,13.7H394.2z M404.5,234.7c-0.6-3.2-2-4.9-5-4.9c-4,0-5.2,3.1-5.3,4.9H404.5z"/>
	<path d="M413.7,225.6h6v3.2h0.1c1.6-2.6,4.4-3.8,7-3.8c6.7,0,8.4,3.8,8.4,9.5v14.2h-6.3v-13c0-3.8-1.1-5.7-4.1-5.7
		c-3.4,0-4.9,1.9-4.9,6.6v12.1h-6.3V225.6z"/>
	<path d="M447.2,225.6h4.6v4.2h-4.6v11.4c0,2.1,0.5,2.7,2.7,2.7c0.7,0,1.3,0,2-0.2v4.9c-1.1,0.2-2.4,0.2-3.7,0.2
		c-3.9,0-7.3-0.9-7.3-5.5v-13.6H437v-4.2h3.8v-6.9h6.3V225.6z"/>
</g>
<g>
	<g>
		<path class="st0" d="M62.5,64.1H32.8V37h91.9v27.1H95.1v78.7H62.5V64.1z"/>
		<path class="st0" d="M129.8,37H219v27.1h-56.6v13.2H219v25.2h-56.6v13.2H219v27.1h-89.2V37z"/>
		<path class="st0" d="M224.5,37H278c35.3,0,47.7,26.1,47.7,52.8c0,32.5-17.2,53.1-54.1,53.1h-47.1V37z M257.1,115.7h12.8
			c20.3,0,23.3-16.5,23.3-26.4c0-6.7-2.1-25.2-25.7-25.2h-10.4V115.7z"/>
	</g>
	<g>
		<g>
			<path class="st0" d="M372.5,102.1l-9.9-16.5l-9.7,16.5H329l22.7-33.3l-21.8-31.9h23.9l8.8,15.8l9.1-15.8h23.9l-21.8,31.9
				l22.7,33.3H372.5z"/>
		</g>
	</g>
</g>
<text transform="matrix(1 0 0 1 402.4686 142.834)" class="st1 st2">DesignTechHighSchool</text>
</svg>
