<?xml version="1.0" encoding="utf-8"?>
<!-- Generator: Adobe Illustrator 22.1.0, SVG Export Plug-In . SVG Version: 6.00 Build 0)  -->
<svg version="1.1" id="Layer_1" xmlns="http://www.w3.org/2000/svg" xmlns:xlink="http://www.w3.org/1999/xlink" x="0px" y="0px"
	 viewBox="0 0 1962.6 356.4" style="enable-background:new 0 0 1962.6 356.4;" xml:space="preserve">
<style type="text/css">
	.st0{fill:#FF2B06;}
	.st1{fill:#FFFFFF;}
	.st2{fill:#F5F5F5;}
	.st3{font-family:'Helvetica';}
	.st4{font-size:146.9047px;}
</style>
<path class="st0" d="M62,190.6l-7.6-10.9h7.2l4.1,6l4-6h7l-7.6,10.8l8.5,12.2h-7.2l-4.8-7.3l-4.8,7.3h-7.1L62,190.6z"/>
<path class="st1" d="M107.6,189.1H85.1v-4.8h22.5V189.1z M107.6,198.6H85.1v-4.8h22.5V198.6z"/>
<path class="st1" d="M124.8,176.1h-6.3v-5.2h6.3V176.1z M118.5,179.7h6.3v23h-6.3V179.7z"/>
<path class="st1" d="M128.9,179.7h6v3.2h0.1c1.6-2.6,4.4-3.8,7-3.8c6.7,0,8.4,3.8,8.4,9.5v14.2h-6.3v-13c0-3.8-1.1-5.7-4.1-5.7
	c-3.4,0-4.9,1.9-4.9,6.6v12.1h-6.3V179.7z"/>
<path class="st1" d="M170.8,199.7L170.8,199.7c-1.6,2.5-4.1,3.6-7.1,3.6c-6.9,0-10.3-6-10.3-12.3c0-6.2,3.4-11.9,10.2-11.9
	c2.7,0,5.4,1.2,6.9,3.4h0h0.1v-11.6h6.3v31.8h-6V199.7z M165.3,183.8c-4.1,0-5.6,3.6-5.6,7.3c0,3.6,1.6,7.4,5.6,7.4
	c4.2,0,5.4-3.6,5.4-7.4C170.8,187.4,169.4,183.8,165.3,183.8z"/>
<path class="st1" d="M185.9,192.7c0.2,4,2.1,5.8,5.7,5.8c2.5,0,4.6-1.6,5-3h5.6c-1.8,5.4-5.6,7.7-10.8,7.7c-7.3,0-11.8-5-11.8-12.1
	c0-6.9,4.8-12.2,11.8-12.2c7.8,0,11.6,6.6,11.2,13.7H185.9z M196.2,188.7c-0.6-3.2-2-4.9-5-4.9c-4,0-5.2,3.1-5.3,4.9H196.2z"/>
<path class="st1" d="M205.4,179.7h6v2.9h0.1c1.5-2.4,4-3.6,6.9-3.6c7.2,0,10.5,5.8,10.5,12.4c0,6.1-3.4,11.9-10.1,11.9
	c-2.8,0-5.4-1.2-6.9-3.5h-0.1v10.9h-6.3V179.7z M222.5,191.2c0-3.6-1.5-7.4-5.5-7.4c-4.1,0-5.5,3.7-5.5,7.4c0,3.7,1.4,7.3,5.5,7.3
	C221.1,198.5,222.5,195,222.5,191.2z"/>
<path class="st1" d="M236.9,192.7c0.2,4,2.1,5.8,5.7,5.8c2.5,0,4.6-1.6,5-3h5.6c-1.8,5.4-5.6,7.7-10.8,7.7c-7.3,0-11.8-5-11.8-12.1
	c0-6.9,4.8-12.2,11.8-12.2c7.8,0,11.6,6.6,11.2,13.7H236.9z M247.2,188.7c-0.6-3.2-2-4.9-5-4.9c-4,0-5.2,3.1-5.3,4.9H247.2z"/>
<path class="st1" d="M256.3,179.7h6v3.2h0.1c1.6-2.6,4.4-3.8,7-3.8c6.7,0,8.4,3.8,8.4,9.5v14.2h-6.3v-13c0-3.8-1.1-5.7-4-5.7
	c-3.4,0-4.9,1.9-4.9,6.6v12.1h-6.3V179.7z"/>
<path class="st1" d="M298.3,199.7L298.3,199.7c-1.6,2.5-4.1,3.6-7.1,3.6c-6.9,0-10.3-6-10.3-12.3c0-6.2,3.4-11.9,10.2-11.9
	c2.7,0,5.4,1.2,6.9,3.4h0h0.1v-11.6h6.3v31.8h-6V199.7z M292.7,183.8c-4.1,0-5.6,3.6-5.6,7.3c0,3.6,1.6,7.4,5.6,7.4
	c4.2,0,5.4-3.6,5.4-7.4C298.2,187.4,296.8,183.8,292.7,183.8z"/>
<path class="st1" d="M313.4,192.7c0.2,4,2.1,5.8,5.7,5.8c2.5,0,4.6-1.6,5-3h5.6c-1.8,5.4-5.6,7.7-10.8,7.7c-7.3,0-11.8-5-11.8-12.1
	c0-6.9,4.8-12.2,11.8-12.2c7.8,0,11.6,6.6,11.2,13.7H313.4z M323.6,188.7c-0.6-3.2-2-4.9-5-4.9c-4,0-5.2,3.1-5.3,4.9H323.6z"/>
<path class="st1" d="M332.8,179.7h6v3.2h0.1c1.6-2.6,4.4-3.8,7-3.8c6.7,0,8.4,3.8,8.4,9.5v14.2h-6.3v-13c0-3.8-1.1-5.7-4.1-5.7
	c-3.4,0-4.9,1.9-4.9,6.6v12.1h-6.3V179.7z"/>
<path class="st1" d="M366.3,179.7h4.6v4.2h-4.6v11.4c0,2.1,0.5,2.7,2.7,2.7c0.7,0,1.3,0,2-0.2v4.9c-1.1,0.2-2.4,0.2-3.7,0.2
	c-3.9,0-7.3-0.9-7.3-5.5v-13.6h-3.8v-4.2h3.8v-6.9h6.3V179.7z"/>
<path class="st1" d="M373.3,170.9h6.3v31.8h-6.3V170.9z"/>
<path class="st1" d="M395,205.6c-1.4,3.7-3.6,5.2-7.9,5.2c-1.3,0-2.6-0.1-3.9-0.2v-5.2c1.2,0.1,2.4,0.3,3.7,0.2
	c2.2-0.2,2.9-2.5,2.2-4.3l-8.1-21.6h6.8l5.2,15.8h0.1l5-15.8h6.5L395,205.6z"/>
<g>
	<path class="st1" d="M65,226.6c7.3,0,11.9,4.8,11.9,12.2c0,7.3-4.7,12.1-11.9,12.1c-7.2,0-11.9-4.8-11.9-12.1
		C53.1,231.4,57.7,226.6,65,226.6z M65,246.1c4.3,0,5.6-3.7,5.6-7.3c0-3.7-1.3-7.4-5.6-7.4c-4.3,0-5.6,3.7-5.6,7.4
		C59.4,242.4,60.7,246.1,65,246.1z"/>
	<path class="st1" d="M79.2,227.2h6v4.3h0.1c1.2-2.9,4.3-4.9,7.3-4.9c0.4,0,1,0.1,1.4,0.2v5.9c-0.6-0.1-1.5-0.2-2.3-0.2
		c-4.6,0-6.2,3.3-6.2,7.4v10.4h-6.3V227.2z"/>
	<path class="st1" d="M117.7,248.8c0,3.8-1.3,10.2-11.9,10.2c-4.5,0-9.8-2.1-10.1-7.4h6.3c0.6,2.4,2.5,3.2,4.7,3.2
		c3.5,0,5.1-2.4,5.1-5.7v-3h-0.1c-1.4,2.4-4.1,3.6-6.9,3.6c-6.9,0-9.8-5.3-9.8-11.6c0-6,3.4-11.4,9.9-11.4c3,0,5.3,1,6.9,3.7h0.1
		v-3.1h6V248.8z M111.7,238.5c0-3.7-1.3-7.1-5.4-7.1c-3.6,0-5.1,3.1-5.1,6.5c0,3.3,1.2,6.9,5.1,6.9
		C109.9,244.8,111.7,241.8,111.7,238.5z"/>
	<path class="st1" d="M120.8,234.3c0.4-5.9,5.7-7.7,10.8-7.7c4.6,0,10.1,1,10.1,6.5v12c0,2.1,0.2,4.2,0.8,5.1h-6.4
		c-0.2-0.7-0.4-1.5-0.4-2.2c-2,2.1-4.9,2.8-7.7,2.8c-4.4,0-7.8-2.2-7.8-6.9c0-5.2,3.9-6.5,7.8-7c3.9-0.6,7.5-0.4,7.5-3
		c0-2.7-1.9-3.1-4.1-3.1c-2.4,0-4,1-4.2,3.5H120.8z M135.4,239c-1.1,0.9-3.3,1-5.3,1.3c-2,0.4-3.7,1.1-3.7,3.4
		c0,2.4,1.8,2.9,3.9,2.9c4.9,0,5.1-3.9,5.1-5.3V239z"/>
	<path class="st1" d="M145.7,227.2h6v3.2h0.1c1.6-2.6,4.4-3.8,7-3.8c6.7,0,8.4,3.8,8.4,9.5v14.2H161v-13c0-3.8-1.1-5.7-4.1-5.7
		c-3.4,0-4.9,1.9-4.9,6.6v12.1h-6.3V227.2z"/>
	<path class="st1" d="M176.8,223.7h-6.3v-5.2h6.3V223.7z M170.5,227.2h6.3v23h-6.3V227.2z"/>
	<path class="st1" d="M179.5,245.5l12-13.5h-11.1v-4.8h19.4v4.8l-12,13.5h12.8v4.8h-21.1V245.5z"/>
	<path class="st1" d="M208.3,240.3c0.2,4,2.1,5.8,5.7,5.8c2.5,0,4.6-1.6,5-3h5.6c-1.8,5.4-5.6,7.7-10.8,7.7c-7.3,0-11.8-5-11.8-12.1
		c0-6.9,4.8-12.2,11.8-12.2c7.8,0,11.6,6.6,11.2,13.7H208.3z M218.6,236.3c-0.6-3.2-2-4.9-5-4.9c-4,0-5.2,3.1-5.3,4.9H218.6z"/>
	<path class="st1" d="M244.2,247.3L244.2,247.3c-1.6,2.5-4.1,3.6-7.1,3.6c-6.9,0-10.3-6-10.3-12.3c0-6.2,3.4-11.9,10.2-11.9
		c2.7,0,5.4,1.2,6.9,3.4h0h0.1v-11.6h6.3v31.8h-6V247.3z M238.7,231.4c-4.1,0-5.6,3.6-5.6,7.3c0,3.6,1.6,7.4,5.6,7.4
		c4.2,0,5.4-3.6,5.4-7.4C244.1,234.9,242.8,231.4,238.7,231.4z"/>
	<path class="st1" d="M273.2,224.3h-9.5v-5.9h26v5.9h-9.5v25.9h-7V224.3z"/>
	<path class="st1" d="M292.5,218.5h23.8v5.9h-16.8v6.8h15.4v5.4h-15.4v7.8h17.1v5.9h-24.1V218.5z"/>
	<path class="st1" d="M319.6,218.5h13.7c8.2,0,14.4,5.2,14.4,15.7c0,9.2-4.7,16.1-14.4,16.1h-13.7V218.5z M326.6,244.4h6.2
		c4,0,7.9-2.5,7.9-9.5c0-6.4-2.2-10.5-9.2-10.5h-5V244.4z"/>
	<path class="st1" d="M367.7,240.3c0.2,4,2.1,5.8,5.7,5.8c2.5,0,4.6-1.6,5-3h5.6c-1.8,5.4-5.6,7.7-10.8,7.7c-7.3,0-11.8-5-11.8-12.1
		c0-6.9,4.8-12.2,11.8-12.2c7.8,0,11.6,6.6,11.2,13.7H367.7z M378,236.3c-0.6-3.2-2-4.9-5-4.9c-4,0-5.2,3.1-5.3,4.9H378z"/>
	<path class="st1" d="M399,250.3h-7l-7.9-23h6.6l4.9,15.7h0.1l4.9-15.7h6.3L399,250.3z"/>
	<path class="st1" d="M412.8,240.3c0.2,4,2.1,5.8,5.7,5.8c2.5,0,4.6-1.6,5-3h5.6c-1.8,5.4-5.6,7.7-10.8,7.7c-7.3,0-11.8-5-11.8-12.1
		c0-6.9,4.8-12.2,11.8-12.2c7.8,0,11.6,6.6,11.2,13.7H412.8z M423.1,236.3c-0.6-3.2-2-4.9-5-4.9c-4,0-5.2,3.1-5.3,4.9H423.1z"/>
	<path class="st1" d="M432.3,227.2h6v3.2h0.1c1.6-2.6,4.4-3.8,7-3.8c6.7,0,8.4,3.8,8.4,9.5v14.2h-6.3v-13c0-3.8-1.1-5.7-4.1-5.7
		c-3.4,0-4.9,1.9-4.9,6.6v12.1h-6.3V227.2z"/>
	<path class="st1" d="M465.8,227.2h4.6v4.2h-4.6v11.4c0,2.1,0.5,2.7,2.7,2.7c0.7,0,1.3,0,2-0.2v4.9c-1.1,0.2-2.4,0.2-3.7,0.2
		c-3.9,0-7.3-0.9-7.3-5.5v-13.6h-3.8v-4.2h3.8v-6.9h6.3V227.2z"/>
</g>
<g>
	<g>
		<path class="st0" d="M81.1,65.7H51.4V38.6h91.9v27.1h-29.6v78.7H81.1V65.7z"/>
		<path class="st0" d="M148.4,38.6h89.2v27.1H181v13.2h56.6v25.2H181v13.2h56.6v27.1h-89.2V38.6z"/>
		<path class="st0" d="M243,38.6h53.5c35.3,0,47.7,26.1,47.7,52.8c0,32.5-17.2,53.1-54.1,53.1H243V38.6z M275.6,117.3h12.8
			c20.3,0,23.3-16.5,23.3-26.4c0-6.7-2.1-25.2-25.7-25.2h-10.4V117.3z"/>
	</g>
	<g>
		<g>
			<path class="st0" d="M391.1,103.7l-9.9-16.5l-9.7,16.5h-23.9l22.7-33.3l-21.8-31.9h23.9l8.8,15.8l9.1-15.8h23.9l-21.8,31.9
				l22.7,33.3H391.1z"/>
		</g>
	</g>
</g>
<text transform="matrix(1 0 0 1 432.2639 144.4451)" class="st2 st3 st4">DesignTechHighSchool</text>
</svg>
